<?xml version="1.0" standalone="no"?>
<!DOCTYPE svg PUBLIC "-//W3C//DTD SVG 20010904//EN"
 "http://www.w3.org/TR/2001/REC-SVG-20010904/DTD/svg10.dtd">
<svg version="1.0" xmlns="http://www.w3.org/2000/svg"
 width="1346.000000pt" height="956.000000pt" viewBox="0 0 1346.000000 956.000000"
 preserveAspectRatio="xMidYMid meet">

<g transform="translate(0.000000,956.000000) scale(0.100000,-0.100000)"
fill="#000000" stroke="none">
<path d="M8805 9159 c-339 -146 -420 -164 -761 -174 -235 -6 -354 -20 -524
-60 -504 -121 -1075 -441 -1618 -908 -63 -54 -117 -95 -121 -90 -4 4 -55 69
-114 144 -125 161 -191 223 -280 267 -200 99 -433 94 -593 -13 -69 -45 -145
-124 -200 -206 -67 -101 -341 -695 -366 -793 -26 -103 -21 -183 26 -366 54
-212 115 -363 214 -530 98 -166 232 -277 403 -334 130 -44 187 -48 506 -43
313 5 391 14 477 57 22 10 41 18 42 17 1 -1 -32 -200 -72 -442 -120 -721 -164
-1046 -149 -1124 l7 -36 12 30 c7 17 35 104 61 193 26 90 51 159 55 155 5 -4
15 -42 25 -83 55 -249 59 -512 15 -1205 -18 -281 -75 -506 -183 -720 -101
-202 -230 -355 -409 -491 -168 -126 -327 -196 -643 -283 -183 -50 -235 -70
-350 -128 -231 -116 -391 -248 -515 -421 -69 -96 -214 -384 -254 -503 -33
-100 -56 -199 -46 -199 5 0 23 17 41 38 18 21 29 29 25 17 -38 -105 -58 -179
-81 -285 -15 -69 -37 -170 -50 -225 -13 -55 -22 -101 -21 -103 2 -1 16 16 31
38 15 22 29 39 31 38 2 -3 -14 -76 -41 -185 -4 -19 -1 -23 20 -23 19 0 25 5
25 21 0 23 56 256 94 392 13 48 22 87 20 87 -2 0 -20 -31 -39 -70 -19 -38 -44
-84 -56 -102 l-20 -33 6 45 c10 61 75 277 114 372 17 43 52 120 77 170 50 100
50 100 -40 18 -36 -33 -38 -34 -31 -10 16 54 125 282 174 363 149 247 263 349
563 501 192 97 329 140 618 191 274 49 405 76 580 119 170 42 286 80 215 70
-16 -2 -154 -24 -305 -48 -327 -53 -360 -58 -360 -52 0 3 39 26 88 52 183 99
304 201 417 353 138 183 276 485 320 698 18 88 41 440 50 769 3 121 8 257 11
304 l6 85 19 -48 c10 -26 27 -78 36 -115 l18 -67 5 155 5 155 87 -188 c87
-187 195 -384 205 -373 3 3 -2 65 -12 138 -9 73 -15 144 -14 158 4 22 8 18 38
-35 45 -79 113 -176 119 -171 2 3 -3 44 -13 91 -9 48 -15 88 -13 91 3 2 30
-34 62 -81 32 -47 60 -85 63 -85 3 0 3 30 -1 68 l-6 67 75 -144 c41 -79 131
-229 201 -333 75 -114 134 -214 147 -251 42 -119 124 -173 405 -267 91 -30
169 -62 173 -70 4 -8 24 -73 44 -144 57 -208 140 -365 262 -497 84 -90 173
-153 302 -215 62 -30 111 -57 108 -60 -2 -3 -54 0 -114 7 -140 14 -187 8 -63
-9 561 -77 929 -290 1078 -623 57 -126 118 -356 177 -659 21 -112 74 -464 70
-469 -2 -1 -20 29 -40 69 -20 40 -38 70 -40 68 -2 -2 19 -93 46 -202 27 -109
49 -212 49 -227 0 -22 5 -29 20 -29 23 0 23 -3 5 80 -20 90 -19 97 5 75 25
-23 26 -27 -5 172 -20 122 -23 168 -15 183 7 14 8 32 1 58 -6 20 -26 131 -46
247 -93 553 -212 820 -433 978 -107 77 -244 147 -482 247 -214 90 -326 144
-410 198 -200 127 -328 291 -403 520 -38 114 -59 212 -46 212 4 0 29 -9 56
-21 26 -11 86 -30 133 -42 78 -20 109 -22 370 -21 277 0 292 2 534 38 319 48
376 63 521 136 184 92 467 264 487 297 31 49 23 103 -27 195 -81 148 -133 262
-150 326 -15 59 -15 72 0 175 36 245 89 434 146 523 36 55 59 110 59 139 0 6
-25 51 -56 100 -65 101 -87 148 -156 330 -27 72 -71 176 -99 232 -56 113 -63
149 -74 363 -3 74 -8 142 -11 152 -3 11 11 25 53 49 101 56 203 138 354 283
80 78 211 203 291 278 163 153 229 234 288 353 109 219 156 499 115 682 -54
235 -122 345 -254 406 -58 27 -78 31 -176 35 -209 8 -343 -46 -564 -225 -29
-24 -34 -25 -27 -8 17 44 75 286 91 382 l17 102 -115 153 c-107 143 -267 370
-267 380 0 3 27 24 60 48 33 24 58 45 57 47 -4 3 -143 -22 -181 -33 -12 -3 9
15 47 40 37 26 67 49 67 52 0 7 -26 2 -233 -47 -93 -22 -171 -38 -173 -36 -3
2 12 17 33 33 86 65 187 176 172 188 -2 1 -85 -32 -184 -75z m45 -33 c0 -3
-60 -49 -132 -104 -124 -93 -213 -172 -194 -172 5 0 25 13 45 29 44 35 110 71
131 71 8 0 80 16 160 35 80 19 150 35 155 34 6 0 -21 -16 -59 -35 -37 -19 -66
-37 -63 -40 2 -2 42 4 88 15 96 22 179 35 179 29 0 -3 -26 -21 -59 -41 -83
-52 -115 -92 -35 -45 36 21 38 21 48 3 40 -69 161 -241 250 -355 83 -106 106
-142 106 -166 0 -78 -66 -358 -161 -679 -62 -208 -60 -204 -54 -125 13 168 17
554 7 670 -10 110 -15 133 -44 190 -25 48 -43 70 -73 88 -70 40 -149 16 -365
-113 -221 -133 -241 -140 -390 -139 -114 0 -139 4 -283 42 -288 77 -594 111
-739 83 -215 -42 -376 -140 -608 -369 -197 -196 -303 -355 -335 -508 -22 -106
-20 -271 6 -347 67 -200 244 -322 477 -330 40 -1 72 -4 72 -6 0 -2 -12 -17
-27 -35 -85 -101 -84 -236 4 -318 36 -34 254 -143 316 -159 26 -6 47 -15 47
-20 0 -31 -252 -471 -538 -939 -138 -225 -175 -300 -221 -442 -66 -208 -82
-354 -61 -553 5 -49 7 -105 4 -123 l-6 -33 -30 52 c-41 72 -89 185 -163 384
-34 94 -69 186 -78 205 -14 32 -15 33 -16 10 -1 -41 18 -340 35 -548 9 -106
14 -195 11 -198 -7 -7 -89 155 -132 261 -20 50 -70 160 -110 245 -78 164 -124
293 -151 418 -16 76 -16 80 6 167 12 50 25 97 27 105 2 8 -3 3 -11 -12 -20
-33 -56 -165 -90 -323 -27 -125 -74 -275 -75 -240 -1 27 86 591 159 1025 69
410 77 475 86 665 11 242 -13 483 -105 1080 -62 401 -62 354 -5 408 126 119
365 306 561 441 313 214 702 408 985 490 209 60 464 96 692 96 48 0 49 0 31
-20 -23 -26 -23 -26 152 10 177 36 265 64 432 135 122 53 141 60 141 51z m294
-647 c70 -55 89 -159 89 -499 0 -328 -16 -519 -55 -637 -41 -123 -46 -130 -89
-113 -19 7 -36 15 -38 16 -1 2 8 18 22 36 24 31 97 170 97 184 0 3 -15 3 -33
0 -34 -6 -34 -6 -69 66 -20 40 -46 104 -57 143 -24 76 -54 235 -46 243 10 11
100 -24 156 -59 68 -45 76 -36 19 21 -103 103 -341 90 -524 -29 -34 -23 -73
-52 -86 -66 -34 -37 -39 -31 -22 28 11 38 16 103 16 237 l1 186 95 46 c52 26
140 75 195 109 162 101 274 131 329 88z m-3844 -148 c132 -49 172 -81 303
-244 117 -145 117 -146 112 -189 -14 -98 -12 -97 -65 -16 -59 90 -188 215
-253 246 -105 49 -260 55 -367 13 -96 -37 -448 -326 -425 -349 2 -3 31 17 62
45 32 27 64 53 71 57 6 4 -12 -39 -42 -96 -91 -172 -125 -311 -133 -543 -18
-521 201 -879 607 -995 107 -31 272 -37 380 -16 95 20 190 60 261 111 46 33
49 34 45 13 -3 -13 -10 -49 -16 -81 -8 -40 -18 -62 -33 -72 -26 -16 -142 -48
-242 -66 -38 -7 -65 -14 -58 -16 18 -6 180 23 251 46 l62 19 0 -29 c0 -35 -14
-43 -110 -60 -53 -10 -166 -14 -385 -14 -294 0 -314 1 -389 23 -250 72 -387
207 -530 522 -92 204 -164 489 -152 606 8 82 27 133 134 364 241 524 300 613
463 700 131 69 297 77 449 21z m2429 23 c58 -8 196 -35 306 -59 110 -24 234
-50 275 -57 l74 -14 9 -39 c5 -22 6 -92 2 -155 -5 -94 -3 -112 7 -102 9 9 13
53 13 157 l0 145 31 0 c39 0 44 -19 44 -174 -1 -130 -16 -225 -58 -356 -44
-139 -62 -237 -62 -343 l0 -94 -127 -6 c-149 -6 -213 -22 -341 -83 -73 -34
-110 -59 -166 -114 -80 -78 -92 -82 -256 -94 -177 -14 -278 -28 -365 -51 -127
-34 -187 -39 -282 -22 -249 45 -383 206 -383 463 0 113 25 214 78 321 50 99
96 158 241 307 224 228 426 351 626 379 73 10 236 6 334 -9z m-2400 -243 c139
-43 275 -192 364 -399 15 -35 27 -70 27 -77 0 -8 -22 -14 -62 -17 -36 -3 -83
-16 -110 -28 l-47 -23 -40 36 c-89 80 -210 122 -356 122 -90 0 -106 -3 -160
-29 -81 -40 -164 -124 -202 -206 -47 -100 -49 -136 -2 -42 55 109 113 173 197
214 64 32 71 33 187 33 101 0 129 -4 177 -23 56 -23 178 -105 178 -119 0 -5
-26 -26 -56 -48 -70 -50 -142 -128 -187 -203 -123 -202 -110 -462 30 -610 41
-43 43 -44 23 -12 -54 87 -93 183 -103 254 -28 194 80 424 258 551 165 118
294 129 360 29 17 -27 61 -267 86 -470 l12 -100 -63 -115 c-34 -62 -72 -128
-85 -145 -43 -56 -120 -126 -195 -177 -94 -63 -105 -73 -55 -52 148 60 261
176 362 369 l41 80 6 -55 c3 -30 8 -115 11 -190 l6 -135 -42 -47 c-129 -147
-308 -216 -533 -204 -131 7 -202 25 -311 77 -306 148 -462 474 -442 924 8 170
33 297 81 407 41 96 117 224 164 280 46 54 150 126 214 149 71 26 187 26 267
1z m4825 -21 c74 -28 127 -82 171 -174 59 -125 70 -181 69 -366 -1 -144 -5
-178 -28 -265 -54 -206 -151 -364 -330 -537 -514 -498 -538 -518 -644 -573
-29 -15 -56 -25 -59 -21 -12 11 -23 121 -13 124 28 10 175 113 245 172 144
121 344 353 478 555 149 225 187 326 187 495 0 141 -20 230 -70 312 -32 53
-35 64 -22 69 13 5 12 9 -9 22 -38 25 -165 38 -256 27 -139 -18 -229 -57 -411
-177 -62 -42 -114 -74 -116 -72 -2 2 5 32 15 66 43 139 272 313 472 359 91 20
246 13 321 -16z m-1219 -232 c11 -100 50 -238 90 -322 20 -43 35 -80 32 -82
-10 -10 -162 -34 -288 -45 -119 -10 -344 -8 -356 4 -7 7 15 124 38 201 18 61
29 78 87 136 76 76 179 132 284 155 107 23 105 24 113 -47z m1101 23 c82 -37
132 -133 154 -293 19 -137 -7 -258 -87 -408 -97 -181 -249 -382 -436 -576
-119 -124 -200 -190 -289 -235 -71 -36 -78 -36 -78 -1 -1 15 -11 82 -23 150
l-23 122 20 -7 c12 -5 64 -8 116 -8 83 0 103 4 154 28 66 31 71 45 8 23 -108
-38 -196 -40 -285 -5 -38 16 -42 43 -17 140 31 118 24 199 -26 296 l-36 72 44
133 c43 128 46 134 95 174 27 22 83 55 124 72 93 38 258 73 277 59 24 -19 70
-122 82 -185 28 -142 -5 -299 -96 -456 -26 -45 -54 -92 -61 -106 -8 -14 8 -1
36 29 60 65 124 189 147 286 33 141 12 305 -51 397 -14 20 -25 40 -25 44 0 11
126 -5 178 -22 26 -9 68 -27 95 -40 58 -29 61 -15 5 26 -140 102 -406 86 -663
-39 l-76 -37 6 30 c10 49 35 76 136 148 241 172 472 245 595 189z m-957 -492
c-60 -84 -201 -146 -315 -136 -68 5 -186 54 -234 96 l-25 22 65 -6 c36 -4 67
-11 70 -15 11 -18 81 -40 127 -40 66 0 109 14 169 55 44 30 98 49 152 54 9 1
6 -9 -9 -30z m-580 -56 c20 -21 63 -53 96 -71 l60 -33 -95 7 c-52 3 -103 8
-113 11 -22 6 -37 42 -37 89 0 30 3 34 26 34 17 0 39 -13 63 -37z m594 15
c-60 -80 -77 -98 -95 -98 -17 0 -9 12 38 55 59 54 75 66 57 43z m-835 -133
c-2 -3 -61 -20 -129 -39 -132 -36 -285 -98 -350 -140 -50 -33 -63 -33 -24 0
69 58 182 125 244 145 36 11 104 24 151 28 47 5 91 9 99 10 8 0 12 -1 9 -4z
m797 -16 c61 -17 140 -102 161 -175 34 -117 -1 -251 -84 -324 -71 -63 -137
-89 -307 -122 -85 -17 -155 -34 -155 -37 0 -11 179 -81 224 -87 31 -5 46 -11
46 -22 0 -29 63 -199 107 -287 25 -49 66 -121 91 -160 126 -194 275 -480 350
-671 29 -73 52 -137 52 -144 0 -21 -28 8 -66 67 -37 59 -111 143 -125 143 -17
0 -9 -15 41 -84 28 -38 49 -70 48 -72 -2 -1 -28 6 -58 16 -30 11 -64 19 -75
20 -10 0 -35 15 -53 33 -35 32 -39 27 -18 -24 5 -12 -6 -19 -55 -33 -59 -16
-187 -75 -256 -117 l-32 -20 -32 48 c-38 54 -51 42 -20 -19 32 -66 10 -71 -49
-13 -28 27 -50 46 -50 42 0 -4 11 -30 25 -57 14 -27 25 -54 25 -59 0 -5 -23
-23 -50 -41 -58 -37 -63 -35 -105 36 -42 71 -49 50 -9 -28 35 -69 35 -72 18
-85 -46 -34 -270 -151 -485 -253 -468 -222 -725 -370 -852 -489 -83 -78 -165
-186 -227 -298 -24 -45 -46 -80 -49 -77 -3 3 -8 26 -11 52 -4 39 -9 48 -27 50
l-22 3 24 -78 c20 -64 23 -84 14 -110 -6 -18 -14 -33 -18 -33 -10 0 -94 177
-130 275 -20 52 -30 71 -31 54 0 -44 36 -148 96 -273 30 -65 54 -120 51 -122
-10 -11 -34 10 -56 49 -13 23 -68 110 -121 192 -190 293 -231 381 -255 544
-26 173 -13 298 51 498 49 150 109 267 308 603 93 157 230 388 305 514 l136
229 115 47 c190 78 374 160 385 172 7 7 4 9 -10 5 -94 -27 -355 -60 -470 -60
-190 -1 -343 46 -409 123 -55 66 -24 209 61 279 53 44 128 69 241 82 53 6 171
19 262 30 91 10 239 26 330 34 191 18 330 39 413 62 72 20 73 18 82 -87 13
-143 24 -153 22 -18 -1 89 2 131 10 139 17 17 32 -24 46 -128 14 -107 1 -205
-59 -452 -46 -187 -70 -348 -41 -271 13 34 14 31 21 -75 17 -271 75 -510 176
-723 45 -93 152 -272 165 -272 9 0 -16 53 -51 111 -54 89 -119 234 -157 349
-74 221 -102 428 -94 677 4 140 9 174 41 298 50 192 59 359 24 493 -3 13 188
85 327 122 79 21 218 26 280 9z m-501 -15 c32 -5 43 -10 34 -16 -33 -21 -299
-99 -415 -122 -131 -25 -342 -50 -351 -41 -10 10 151 76 265 109 114 32 265
62 348 69 22 2 47 4 56 5 9 1 37 -1 63 -4z m675 -632 c11 -53 26 -149 35 -212
15 -111 56 -524 56 -565 0 -45 -32 38 -70 185 l-12 45 -14 -28 c-8 -15 -16
-27 -18 -27 -8 0 -125 220 -153 290 -36 86 -105 282 -101 285 2 1 32 16 68 33
36 17 90 53 120 80 64 58 59 63 89 -86z m202 -1368 c110 -59 249 -227 249
-301 0 -18 -17 -65 -40 -107 -69 -132 -125 -345 -150 -573 -11 -101 -11 -103
19 -192 17 -49 62 -153 101 -230 38 -77 70 -153 70 -168 0 -60 -26 -80 -240
-190 -254 -129 -313 -154 -515 -208 -303 -81 -365 -90 -640 -89 -169 1 -251 6
-355 22 -255 39 -531 110 -714 183 -133 53 -175 83 -205 143 l-25 49 29 81
c98 280 245 516 373 602 191 127 584 339 852 459 152 68 275 138 535 305 274
175 328 206 403 231 84 28 182 21 253 -17z"/>
<path d="M6052 5600 c-17 -47 -28 -155 -15 -147 12 8 37 135 31 162 -3 16 -6
13 -16 -15z"/>
<path d="M6106 5544 c-10 -27 -7 -292 4 -299 7 -4 10 50 10 154 0 89 -2 161
-4 161 -2 0 -7 -7 -10 -16z"/>
<path d="M6015 5050 c2 -105 11 -189 25 -258 21 -100 56 -216 45 -147 -18 108
-35 247 -45 355 -19 203 -30 225 -25 50z"/>
<path d="M6112 4892 c4 -53 14 -119 23 -147 l15 -50 -5 80 c-5 85 -23 195 -34
207 -3 4 -3 -36 1 -90z"/>
<path d="M5060 8234 c-87 -19 -219 -83 -274 -135 -62 -57 -58 -68 7 -18 150
115 347 164 502 124 80 -21 143 -57 231 -132 41 -35 74 -59 74 -52 0 23 -128
137 -188 168 -116 58 -226 73 -352 45z"/>
<path d="M4463 7150 c7 -122 33 -223 82 -321 20 -38 37 -69 40 -69 2 0 -5 26
-16 58 -29 82 -66 233 -84 336 -8 49 -18 92 -21 95 -4 3 -4 -41 -1 -99z"/>
<path d="M7620 8026 c-138 -29 -274 -95 -413 -200 -92 -69 -270 -252 -326
-335 -24 -35 -60 -82 -79 -103 -19 -21 -33 -40 -31 -41 2 -2 37 -29 78 -62
100 -79 174 -122 250 -145 63 -20 290 -54 299 -46 5 6 9 5 -173 45 -72 16
-159 40 -194 55 -59 24 -161 92 -161 107 0 4 51 -12 113 -36 303 -115 429
-137 661 -117 106 9 155 19 242 48 60 20 121 42 135 50 38 19 87 62 101 87 11
21 11 21 -18 2 -82 -53 -101 -64 -124 -70 -20 -6 -12 7 40 62 36 39 75 86 87
107 21 35 21 36 3 36 -41 0 -82 138 -104 349 -9 80 -14 146 -13 148 2 1 25 -4
52 -12 26 -8 55 -15 63 -15 23 0 -29 37 -95 67 -53 25 -71 28 -193 30 -85 1
-159 -3 -200 -11z m305 -35 l30 -6 7 -110 c10 -155 25 -238 57 -332 22 -63 25
-83 15 -87 -29 -11 -347 -56 -469 -66 -182 -14 -739 -12 -727 3 261 352 533
547 829 597 57 9 216 10 258 1z m96 -609 c-110 -139 -217 -189 -426 -199 -190
-9 -289 7 -510 83 -104 35 -194 69 -200 75 -7 8 64 9 240 4 242 -8 251 -9 281
-31 68 -53 257 -57 363 -9 31 14 70 39 86 55 22 20 50 32 100 43 100 21 100
21 66 -21z"/>
<path d="M9873 8045 c-130 -35 -302 -129 -390 -211 -59 -56 -44 -49 71 33 93
67 193 119 286 150 40 13 85 18 165 18 119 0 141 -8 234 -82 l35 -28 -19 32
c-23 39 -63 70 -117 89 -51 18 -196 17 -265 -1z"/>
<path d="M10236 7683 c20 -64 20 -223 0 -347 -9 -54 -15 -101 -13 -103 2 -2
11 16 20 39 56 150 66 297 28 385 -32 73 -54 90 -35 26z"/>
<path d="M8838 7036 c-46 -12 -134 -63 -125 -72 2 -2 26 6 53 18 72 31 179 36
222 8 38 -23 62 -73 62 -125 0 -22 4 -34 10 -30 6 3 10 33 10 65 0 75 -28 113
-103 135 -59 18 -67 18 -129 1z"/>
<path d="M8809 6931 c-118 -46 -237 -165 -303 -304 -57 -119 -86 -207 -86
-260 0 -69 16 -76 24 -10 8 76 54 171 104 220 32 31 53 41 103 52 82 16 180
55 245 96 95 61 123 149 63 199 -37 31 -83 33 -150 7z"/>
<path d="M7320 6810 c-61 -13 -140 -53 -174 -89 l-29 -30 64 34 c87 46 208 70
314 61 44 -3 90 -9 103 -12 12 -4 22 -2 22 3 0 26 -218 50 -300 33z"/>
<path d="M7396 6711 c-61 -21 -110 -59 -120 -93 -7 -30 38 -71 107 -96 75 -29
171 -29 344 0 113 18 138 20 173 9 78 -23 165 -136 177 -231 3 -23 10 -37 16
-33 18 11 -2 114 -35 175 -65 123 -198 219 -363 263 -99 26 -230 29 -299 6z"/>
<path d="M7873 6664 c27 -14 56 -24 65 -22 27 5 -50 48 -84 48 -27 -1 -26 -3
19 -26z"/>
<path d="M8345 6657 c-16 -39 -21 -124 -6 -97 11 18 31 123 25 129 -2 2 -11
-12 -19 -32z"/>
<path d="M7190 6605 c0 -21 36 -68 67 -90 67 -45 70 -26 5 35 -60 57 -72 67
-72 55z"/>
<path d="M8790 6235 c0 -26 89 -152 90 -127 0 23 -50 111 -70 122 -11 6 -20 8
-20 5z"/>
<path d="M7670 6185 c-16 -37 -27 -170 -13 -162 12 8 37 146 31 173 -4 16 -7
14 -18 -11z"/>
<path d="M7793 6073 c3 -55 11 -82 31 -118 15 -26 29 -45 31 -43 8 7 -34 178
-50 205 -15 27 -16 26 -12 -44z"/>
<path d="M8464 5393 c21 -58 55 -133 60 -133 8 0 -16 75 -40 123 -29 56 -38
61 -20 10z"/>
<path d="M9213 5001 c-97 -36 -256 -126 -463 -261 -155 -102 -284 -175 -530
-300 -448 -229 -663 -361 -818 -503 -59 -55 -141 -166 -182 -247 -18 -36 -41
-77 -52 -92 l-19 -27 23 -5 c109 -24 926 -176 1058 -197 41 -7 136 -13 210
-13 159 -1 241 18 380 88 127 65 264 113 386 136 208 40 252 51 264 65 9 11 1
48 -42 172 l-53 158 1 155 c0 185 20 293 125 692 l10 38 40 -27 c21 -14 42
-24 45 -21 2 3 -28 39 -69 80 -116 117 -207 149 -314 109z m180 -64 c90 -43
91 -43 69 -107 -32 -93 -71 -269 -101 -456 -22 -138 -30 -172 -36 -150 -4 16
-5 75 -2 132 4 57 4 110 1 119 -12 32 -24 13 -24 -39 0 -29 -3 -81 -6 -114
l-7 -62 -31 28 c-18 15 -46 34 -64 41 -18 7 -32 17 -32 21 0 4 11 63 25 131
37 179 76 402 71 407 -11 10 -60 -181 -94 -361 l-37 -198 -33 -21 c-18 -11
-35 -18 -38 -15 -3 3 6 56 20 119 36 164 70 435 51 416 -3 -3 -16 -74 -30
-159 -14 -85 -35 -203 -46 -264 l-20 -110 -99 0 c-84 0 -99 2 -95 15 19 65 28
131 30 228 l2 114 67 66 68 67 -7 -65 c-3 -36 -13 -127 -21 -202 -18 -154 -15
-190 9 -108 21 68 37 209 37 315 l0 81 70 59 c102 87 144 108 203 101 27 -3
72 -16 100 -29z m-577 -532 c-5 -69 -22 -135 -35 -135 -3 0 -8 45 -9 100 -3
73 1 115 14 157 l17 58 9 -55 c5 -30 7 -86 4 -125z m379 -111 c12 -5 2 -16
-41 -45 -54 -36 -59 -37 -76 -22 -25 23 -23 28 20 46 66 28 74 30 97 21z
m-245 -49 c0 -8 5 -15 10 -15 6 0 10 7 10 15 0 24 13 18 52 -22 72 -74 128
-244 128 -388 0 -48 -3 -65 -14 -65 -7 0 -28 -3 -45 -6 l-31 -6 0 51 c0 28 -4
51 -10 51 -5 0 -10 -13 -10 -29 0 -47 -17 -79 -52 -98 -28 -15 -58 -18 -183
-18 -82 0 -179 -4 -214 -9 l-64 -9 6 151 c5 132 9 159 30 205 42 93 123 151
259 187 91 24 128 25 128 5z m345 -57 c9 -24 23 -99 31 -168 8 -69 19 -142 25
-164 6 -21 8 -41 5 -44 -7 -7 -91 -21 -132 -21 l-30 -1 -13 103 c-13 105 -34
206 -52 253 -12 34 -7 39 62 64 77 28 84 26 104 -22z m-910 -45 c27 -14 51
-39 74 -77 l34 -57 -6 -142 c-7 -182 -11 -192 -79 -207 -90 -19 -210 -31 -283
-28 l-70 3 -6 45 c-5 47 -16 39 -21 -15 l-3 -30 -203 -3 c-177 -2 -203 0 -209
13 -8 24 16 158 44 244 27 82 55 119 119 157 46 27 185 77 192 69 3 -3 -1 -17
-9 -32 -7 -16 -15 -32 -17 -36 -3 -5 5 -4 16 2 11 6 27 28 36 50 10 27 24 42
38 46 13 3 41 9 63 15 22 5 87 8 145 7 84 -2 113 -7 145 -24z m-751 -109 c9
-3 16 -14 16 -23 0 -18 -106 -360 -114 -368 -5 -5 -133 15 -147 23 -4 2 -3 25
2 50 5 26 7 49 4 52 -2 2 -14 -16 -27 -42 -18 -38 -27 -46 -50 -46 -34 0 -34
0 -7 53 63 122 171 246 250 285 49 24 50 25 73 16z m1784 -319 l22 -46 -26 -9
c-14 -6 -74 -19 -132 -31 -233 -44 -297 -61 -405 -103 -154 -61 -265 -92 -382
-106 -108 -13 -174 -9 -335 20 -58 11 -188 31 -290 45 -428 59 -620 92 -620
106 0 17 23 59 33 59 16 0 312 -53 316 -56 2 -2 -2 -10 -9 -19 -23 -28 -2 -28
22 0 23 26 26 27 91 20 60 -7 69 -10 84 -36 10 -16 21 -29 25 -29 10 0 10 3
-1 33 l-9 24 126 6 c70 4 160 7 199 7 l73 0 -30 -47 c-17 -26 -30 -51 -30 -57
0 -16 46 32 65 68 15 28 25 35 63 40 72 10 81 8 88 -19 6 -24 34 -56 34 -39 0
5 -4 23 -9 40 l-9 32 82 23 c109 32 199 32 244 1 32 -23 46 -16 17 8 -8 7 -15
15 -15 19 0 3 50 4 110 3 98 -3 119 -1 183 22 40 14 97 30 129 37 52 11 58 10
88 -11 32 -23 53 -23 25 0 -32 27 -20 31 126 38 32 2 37 -1 57 -43z"/>
<path d="M8061 1760 c50 -80 142 -254 163 -310 24 -64 48 -190 37 -190 -17 2
-124 171 -172 274 -17 37 -33 65 -35 63 -2 -1 10 -69 26 -149 34 -166 53 -354
42 -413 -7 -38 -8 -36 -20 45 -19 125 -50 245 -84 328 -17 40 -32 71 -34 69
-2 -2 3 -55 12 -118 22 -152 14 -363 -15 -467 -20 -68 -69 -179 -75 -170 -2 1
0 30 5 63 10 80 10 278 0 244 -5 -14 -11 -56 -15 -95 -16 -167 -54 -344 -73
-344 -4 0 -38 20 -77 44 -39 24 -120 72 -181 106 -392 224 -526 373 -585 650
l-19 85 0 -55 c0 -30 8 -87 18 -125 24 -94 107 -328 138 -388 13 -27 23 -51
21 -53 -9 -9 -129 80 -180 133 -62 66 -101 135 -123 220 -19 73 -19 142 0 289
9 64 14 119 11 121 -3 3 -12 -19 -21 -49 -23 -78 -46 -342 -40 -466 l5 -107
-18 40 c-50 106 -71 282 -53 448 7 59 14 115 17 125 3 9 -13 -3 -35 -28 l-41
-45 26 75 c58 173 48 203 -16 50 -62 -146 -79 -165 -206 -234 -374 -201 -817
-533 -1007 -755 -119 -139 -357 -462 -357 -486 0 -3 9 -5 20 -5 14 0 38 28 81
93 164 243 348 464 485 578 219 183 601 450 787 549 l99 53 -15 -30 c-24 -45
-92 -130 -171 -212 l-71 -74 45 24 c64 34 206 178 279 284 59 84 62 88 54 50
-13 -66 -7 -254 11 -328 32 -134 114 -292 201 -392 31 -34 31 -34 -14 60 -18
39 -41 102 -51 140 -19 72 -34 175 -26 175 2 0 16 -25 30 -56 34 -74 75 -125
147 -180 55 -42 212 -124 239 -124 6 0 -9 24 -34 52 -41 46 -116 172 -116 194
0 4 37 -28 83 -72 125 -122 249 -202 526 -344 121 -62 124 -64 146 -115 13
-28 35 -108 50 -177 27 -125 38 -158 50 -146 6 5 -65 301 -85 353 -9 25 -4 38
54 129 119 188 135 241 136 436 1 137 10 143 30 18 12 -74 9 -282 -4 -338 -4
-14 7 2 24 36 17 34 37 92 45 130 19 89 19 254 0 369 -8 49 -13 91 -11 92 6 6
88 -118 111 -169 13 -29 25 -68 27 -86 1 -22 5 -29 13 -21 13 13 11 189 -3
248 l-10 43 35 -33 c47 -45 194 -225 271 -332 170 -234 344 -581 419 -829 9
-31 19 -48 29 -48 10 0 14 6 10 15 -3 8 -24 75 -47 148 l-42 132 28 78 c15 43
25 80 22 83 -3 3 -18 -18 -34 -48 l-28 -53 -6 105 c-4 58 -7 125 -8 149 -2 85
-16 28 -21 -87 l-5 -117 -33 64 c-117 223 -323 518 -472 677 -102 109 -133
151 -180 244 -36 72 -108 178 -136 201 -18 13 -18 13 -3 -11z"/>
<path d="M4897 410 c-10 -96 -19 -187 -21 -203 -2 -20 2 -27 15 -27 24 0 31
65 27 255 l-3 150 -18 -175z"/>
<path d="M7910 436 c-1 -21 53 -242 61 -250 20 -22 19 7 -6 105 -23 90 -53
171 -55 145z"/>
<path d="M3584 298 c-31 -40 -66 -83 -77 -95 l-20 -23 35 0 c35 0 37 2 83 91
26 50 45 93 42 95 -3 3 -31 -28 -63 -68z"/>
</g>
</svg>
